<?xml version="1.0" encoding="UTF-8"?>
<svg xmlns="http://www.w3.org/2000/svg" xmlns:xlink="http://www.w3.org/1999/xlink" viewBox="0 0 50 50" width="50px" height="50px">
<g id="surface20579600">
<path style=" stroke:none;fill-rule:nonzero;fill:rgb(100%,100%,100%);fill-opacity:1;" d="M 25 50 C 11.191406 50 0 38.808594 0 25 C 0 11.191406 11.191406 0 25 0 C 38.808594 0 50 11.191406 50 25 C 50 38.808594 38.808594 50 25 50 Z M 25 50 "/>
<path style=" stroke:none;fill-rule:nonzero;fill:rgb(100%,47.058824%,0%);fill-opacity:1;" d="M 16.199219 8.199219 C 11.789062 8.199219 8.199219 11.789062 8.199219 16.199219 L 8.199219 33.800781 C 8.199219 38.210938 11.789062 41.800781 16.199219 41.800781 L 33.800781 41.800781 C 38.210938 41.800781 41.800781 38.210938 41.800781 33.800781 L 41.800781 16.199219 C 41.800781 11.789062 38.210938 8.199219 33.800781 8.199219 Z M 16.199219 9.800781 L 33.800781 9.800781 C 37.34375 9.800781 40.199219 12.65625 40.199219 16.199219 L 40.199219 33.800781 C 40.199219 37.34375 37.34375 40.199219 33.800781 40.199219 L 16.199219 40.199219 C 12.65625 40.199219 9.800781 37.34375 9.800781 33.800781 L 9.800781 16.199219 C 9.800781 12.65625 12.65625 9.800781 16.199219 9.800781 Z M 15.398438 17 C 14.085938 17 13 18.085938 13 19.398438 L 13 30.601562 C 13 31.914062 14.085938 33 15.398438 33 L 34.601562 33 C 35.914062 33 37 31.914062 37 30.601562 L 37 19.398438 C 37 18.085938 35.914062 17 34.601562 17 Z M 15.730469 18.601562 L 34.265625 18.601562 L 27.140625 25.714844 C 25.949219 26.90625 24.039062 26.90625 22.84375 25.710938 Z M 35.398438 19.730469 L 35.398438 30.269531 L 30.121094 25 Z M 14.601562 19.730469 L 19.867188 25 L 14.601562 30.269531 Z M 28.992188 26.128906 L 34.269531 31.398438 L 15.730469 31.398438 L 21 26.132812 L 21.710938 26.84375 C 23.515625 28.648438 26.464844 28.648438 28.273438 26.847656 Z M 28.992188 26.128906 "/>
</g>
</svg>
