<?xml version="1.0" encoding="UTF-8"?>
<svg xmlns="http://www.w3.org/2000/svg" xmlns:xlink="http://www.w3.org/1999/xlink" viewBox="0 0 30 30" width="30px" height="30px">
<g id="surface12307555">
<path style=" stroke:none;fill-rule:nonzero;fill:rgb(100%,100%,100%);fill-opacity:1;" d="M 15 30 C 6.714844 30 0 23.285156 0 15 C 0 6.714844 6.714844 0 15 0 C 23.285156 0 30 6.714844 30 15 C 30 23.285156 23.285156 30 15 30 Z M 15 30 "/>
<path style=" stroke:none;fill-rule:nonzero;fill:rgb(0%,0%,0%);fill-opacity:1;" d="M 12.425781 24.601562 L 12.425781 15 L 9.222656 15 L 9.222656 11.800781 L 12.425781 11.800781 L 12.425781 10.082031 C 12.425781 6.828125 14.007812 5.398438 16.714844 5.398438 C 18.007812 5.398438 18.691406 5.496094 19.015625 5.539062 L 19.015625 8.601562 L 17.171875 8.601562 C 16.023438 8.601562 15.625 9.207031 15.625 10.433594 L 15.625 11.800781 L 18.988281 11.800781 L 18.53125 15 L 15.625 15 L 15.625 24.601562 Z M 12.425781 24.601562 "/>
</g>
</svg>
