<?xml version="1.0" encoding="UTF-8"?>
<svg xmlns="http://www.w3.org/2000/svg" xmlns:xlink="http://www.w3.org/1999/xlink" viewBox="0 0 24 24" width="24px" height="24px">
<g id="surface292653075">
<path style=" stroke:none;fill-rule:nonzero;fill:rgb(100%,100%,100%);fill-opacity:1;" d="M 12 24 C 5.371094 24 0 18.628906 0 12 C 0 5.371094 5.371094 0 12 0 C 18.628906 0 24 5.371094 24 12 C 24 18.628906 18.628906 24 12 24 Z M 12 24 "/>
<path style=" stroke:none;fill-rule:nonzero;fill:rgb(98.039216%,50.588238%,14.117648%);fill-opacity:1;" d="M 16.472656 9.601562 L 13.652344 9.601562 L 13.652344 8 C 13.652344 7.175781 13.71875 6.65625 14.902344 6.65625 L 16.398438 6.65625 L 16.398438 4.109375 C 15.671875 4.035156 14.9375 4 14.207031 4 C 12.035156 4 10.453125 5.324219 10.453125 7.757812 L 10.453125 9.601562 L 8.050781 9.601562 L 8.050781 12.800781 L 10.453125 12.800781 L 10.453125 20 L 13.652344 20 L 13.652344 12.796875 L 16.105469 12.796875 Z M 16.472656 9.601562 "/>
</g>
</svg>
