<?xml version="1.0" encoding="UTF-8"?>
<svg xmlns="http://www.w3.org/2000/svg" xmlns:xlink="http://www.w3.org/1999/xlink" viewBox="0 0 64 64" width="64px" height="64px">
<g id="surface298307018">
<path style=" stroke:none;fill-rule:nonzero;fill:rgb(100%,100%,100%);fill-opacity:1;" d="M 32 64 C 14.328125 64 0 49.671875 0 32 C 0 14.328125 14.328125 0 32 0 C 49.671875 0 64 14.328125 64 32 C 64 49.671875 49.671875 64 32 64 Z M 32 64 "/>
<path style=" stroke:none;fill-rule:nonzero;fill:rgb(100%,47.058824%,0%);fill-opacity:1;" d="M 32 14.933594 C 41.367188 14.933594 48.957031 22.527344 48.957031 31.890625 C 48.957031 39.421875 44.050781 45.800781 37.257812 48.015625 C 37.261719 48.007812 37.261719 48 37.261719 48 C 37.261719 48 36.117188 47.464844 36.140625 46.507812 C 36.167969 45.453125 36.140625 42.992188 36.140625 42.089844 C 36.140625 40.542969 35.160156 39.445312 35.160156 39.445312 C 35.160156 39.445312 42.851562 39.53125 42.851562 31.324219 C 42.851562 28.15625 41.199219 26.511719 41.199219 26.511719 C 41.199219 26.511719 42.066406 23.128906 40.894531 21.695312 C 39.585938 21.554688 37.234375 22.949219 36.234375 23.601562 C 36.234375 23.601562 34.644531 22.953125 32 22.953125 C 29.355469 22.953125 27.765625 23.601562 27.765625 23.601562 C 26.761719 22.953125 24.414062 21.554688 23.101562 21.695312 C 21.933594 23.132812 22.800781 26.511719 22.800781 26.511719 C 22.800781 26.511719 21.144531 28.160156 21.144531 31.324219 C 21.144531 39.53125 28.835938 39.445312 28.835938 39.445312 C 28.835938 39.445312 28.0625 40.320312 27.894531 41.605469 C 27.355469 41.789062 26.566406 42.015625 25.929688 42.015625 C 24.257812 42.015625 22.988281 40.390625 22.523438 39.640625 C 22.066406 38.902344 21.125 38.28125 20.25 38.28125 C 19.671875 38.28125 19.390625 38.570312 19.390625 38.898438 C 19.390625 39.226562 20.199219 39.457031 20.734375 40.070312 C 21.859375 41.359375 21.839844 44.261719 25.851562 44.261719 C 26.289062 44.261719 27.179688 44.15625 27.847656 44.066406 C 27.84375 44.980469 27.84375 45.945312 27.855469 46.507812 C 27.882812 47.464844 26.738281 48 26.738281 48 C 26.738281 48 26.738281 48.007812 26.742188 48.015625 C 19.949219 45.800781 15.042969 39.421875 15.042969 31.890625 C 15.042969 22.527344 22.632812 14.933594 32 14.933594 Z M 32 14.933594 "/>
</g>
</svg>
