<?xml version="1.0" encoding="UTF-8"?>
<svg xmlns="http://www.w3.org/2000/svg" xmlns:xlink="http://www.w3.org/1999/xlink" viewBox="0 0 30 30" width="30px" height="30px">
<g id="surface291058907">
<path style=" stroke:none;fill-rule:nonzero;fill:rgb(100%,100%,100%);fill-opacity:1;" d="M 15 30 C 6.714844 30 0 23.285156 0 15 C 0 6.714844 6.714844 0 15 0 C 23.285156 0 30 6.714844 30 15 C 30 23.285156 23.285156 30 15 30 Z M 15 30 "/>
<path style=" stroke:none;fill-rule:nonzero;fill:rgb(0%,0%,0%);fill-opacity:1;" d="M 11 5.398438 C 7.910156 5.398438 5.398438 7.914062 5.398438 11 L 5.398438 19 C 5.398438 22.089844 7.914062 24.601562 11 24.601562 L 19 24.601562 C 22.089844 24.601562 24.601562 22.085938 24.601562 19 L 24.601562 11 C 24.601562 7.910156 22.085938 5.398438 19 5.398438 Z M 20.601562 8.601562 C 21.042969 8.601562 21.398438 8.957031 21.398438 9.398438 C 21.398438 9.839844 21.042969 10.199219 20.601562 10.199219 C 20.160156 10.199219 19.800781 9.839844 19.800781 9.398438 C 19.800781 8.957031 20.160156 8.601562 20.601562 8.601562 Z M 15 10.199219 C 17.648438 10.199219 19.800781 12.351562 19.800781 15 C 19.800781 17.648438 17.648438 19.800781 15 19.800781 C 12.351562 19.800781 10.199219 17.648438 10.199219 15 C 10.199219 12.351562 12.351562 10.199219 15 10.199219 Z M 15 11.800781 C 13.234375 11.800781 11.800781 13.234375 11.800781 15 C 11.800781 16.765625 13.234375 18.199219 15 18.199219 C 16.765625 18.199219 18.199219 16.765625 18.199219 15 C 18.199219 13.234375 16.765625 11.800781 15 11.800781 Z M 15 11.800781 "/>
</g>
</svg>
